<svg width="36" height="36" viewBox="0 0 36 36" fill="none" xmlns="http://www.w3.org/2000/svg">
<path d="M9.53914 6.00889L7.39588 8.18131C6.81752 8.75348 6.35837 9.43468 6.04502 10.1855C5.73166 10.9363 5.57031 11.7417 5.57031 12.5553C5.57031 13.3689 5.73166 14.1744 6.04502 14.9252C6.35837 15.6759 6.81752 16.3571 7.39588 16.9293L18.2871 27.806C18.8593 28.3844 19.5405 28.8435 20.2913 29.1569C21.0421 29.4702 21.8476 29.6316 22.6611 29.6316C23.4747 29.6316 24.2802 29.4702 25.031 29.1569C25.7818 28.8435 26.463 28.3844 27.0351 27.806L29.2659 25.6627C29.4181 25.5196 29.5395 25.3468 29.6224 25.1549C29.7054 24.9631 29.7482 24.7563 29.7482 24.5474C29.7482 24.3384 29.7054 24.1316 29.6224 23.9398C29.5395 23.748 29.4181 23.5751 29.2659 23.432L26 20.1515C25.7082 19.8648 25.3155 19.7041 24.9065 19.7041C24.4974 19.7041 24.1047 19.8648 23.813 20.1515L22.7195 21.245C22.4277 21.5317 22.035 21.6924 21.626 21.6924C21.2169 21.6924 20.8242 21.5317 20.5325 21.245L13.9131 14.684C13.6264 14.3922 13.4658 13.9995 13.4658 13.5905C13.4658 13.1814 13.6264 12.7887 13.9131 12.497L15.0066 11.4035C15.2934 11.1117 15.454 10.719 15.454 10.31C15.454 9.90093 15.2934 9.50824 15.0066 9.21649L11.7699 6.00889C11.6267 5.85663 11.4539 5.73529 11.2621 5.65234C11.0703 5.5694 10.8635 5.52661 10.6545 5.52661C10.4455 5.52661 10.2387 5.5694 10.0469 5.65234C9.8551 5.73529 9.68229 5.85663 9.53914 6.00889Z" fill="#193E9E"/>
</svg>
