<svg width="36" height="36" viewBox="0 0 36 36" fill="none" xmlns="http://www.w3.org/2000/svg">
<path d="M21.5944 12.293H7.72885C6.7544 12.293 5.81986 12.6801 5.13082 13.3691C4.44179 14.0581 4.05469 14.9927 4.05469 15.9671V16.7982C4.05469 16.8755 4.08541 16.9497 4.14009 17.0044C4.19478 17.0591 4.26895 17.0898 4.34629 17.0898H24.9624C25.0397 17.0898 25.1139 17.0591 25.1686 17.0044C25.2233 16.9497 25.254 16.8755 25.254 16.7982V15.9525C25.254 14.982 24.8684 14.0511 24.1821 13.3648C23.4958 12.6785 22.565 12.293 21.5944 12.293Z" fill="#193E9E"/>
<path d="M24.9624 19.2766H4.34629C4.26895 19.2766 4.19478 19.3073 4.14009 19.362C4.08541 19.4167 4.05469 19.4909 4.05469 19.5682V25.1378C4.05469 26.1084 4.44025 27.0392 5.12655 27.7255C5.81286 28.4118 6.74369 28.7974 7.71427 28.7974H21.5798C22.5543 28.7974 23.4888 28.4103 24.1779 27.7212C24.8669 27.0322 25.254 26.0976 25.254 25.1232V19.5682C25.254 19.4909 25.2233 19.4167 25.1686 19.362C25.1139 19.3073 25.0397 19.2766 24.9624 19.2766Z" fill="#193E9E"/>
<path d="M31.1441 10.0622V19.233C31.1461 20.118 30.8287 20.9739 30.2501 21.6436C29.6715 22.3133 28.8707 22.7516 27.9948 22.878C27.9325 22.8843 27.8696 22.8772 27.8104 22.8571C27.7511 22.837 27.6968 22.8045 27.6512 22.7616C27.6056 22.7188 27.5697 22.6666 27.546 22.6088C27.5223 22.5509 27.5112 22.4885 27.5136 22.426V13.678C27.5098 12.7061 27.121 11.7753 26.4324 11.0894C25.7437 10.4035 24.8114 10.0184 23.8395 10.0184H10.4259C10.3639 10.0212 10.302 10.0102 10.2447 9.98639C10.1874 9.96254 10.1361 9.92637 10.0943 9.88045C10.0526 9.83452 10.0215 9.77997 10.0032 9.72067C9.98487 9.66136 9.97985 9.59876 9.98847 9.53729C10.1116 8.66649 10.5454 7.86956 11.2099 7.29347C11.8744 6.71738 12.7248 6.40097 13.6043 6.40259H27.4845C28.4551 6.40259 29.3859 6.78816 30.0722 7.47446C30.7585 8.16076 31.1441 9.09159 31.1441 10.0622Z" fill="#193E9E"/>
</svg>
