<svg width="36" height="36" viewBox="0 0 36 36" fill="none" xmlns="http://www.w3.org/2000/svg">
<path d="M26.6121 14.8007C26.6121 12.411 25.6628 10.1192 23.973 8.42938C22.2832 6.73959 19.9914 5.79028 17.6016 5.79028C15.2119 5.79028 12.9201 6.73959 11.2303 8.42938C9.54052 10.1192 8.59121 12.411 8.59121 14.8007C8.59121 14.8007 8.08091 18.9414 13.9712 27.4999C14.3702 28.1014 14.9119 28.5948 15.5479 28.9361C16.1838 29.2775 16.8944 29.4561 17.6162 29.4561C18.338 29.4561 19.0486 29.2775 19.6846 28.9361C20.3206 28.5948 20.8622 28.1014 21.2612 27.4999C27.1224 18.9414 26.6121 14.8007 26.6121 14.8007ZM17.6016 17.7167C17.0249 17.7167 16.4611 17.5457 15.9816 17.2253C15.5021 16.9049 15.1283 16.4495 14.9076 15.9166C14.6869 15.3838 14.6292 14.7975 14.7417 14.2318C14.8542 13.6662 15.1319 13.1466 15.5397 12.7388C15.9475 12.331 16.4671 12.0533 17.0328 11.9408C17.5984 11.8282 18.1847 11.886 18.7176 12.1067C19.2504 12.3274 19.7058 12.7011 20.0262 13.1807C20.3466 13.6602 20.5176 14.224 20.5176 14.8007C20.5138 15.5716 20.2049 16.3095 19.6584 16.8532C19.112 17.3969 18.3725 17.7022 17.6016 17.7021V17.7167Z" fill="#193E9E"/>
</svg>
