<svg width="36" height="36" viewBox="0 0 36 36" fill="none" xmlns="http://www.w3.org/2000/svg">
<path d="M24.5993 6.56299H10.6025C9.44246 6.56299 8.32991 7.02382 7.50963 7.8441C6.68935 8.66439 6.22852 9.77693 6.22852 10.937V19.4663C6.22895 20.4227 6.54287 21.3527 7.12219 22.1137C7.70152 22.8747 8.51431 23.4249 9.43612 23.6799C9.7704 23.7481 10.0702 23.9313 10.2833 24.1977C10.4964 24.4641 10.6094 24.7968 10.6025 25.1379V27.9373C10.6017 28.0812 10.6434 28.2221 10.7226 28.3424C10.8017 28.4626 10.9147 28.5567 11.0472 28.6128C11.1797 28.669 11.3259 28.6846 11.4673 28.6578C11.6087 28.631 11.739 28.5629 11.8418 28.4622L15.9825 24.3214C16.2541 24.0521 16.6206 23.9002 17.0031 23.8986H24.5993C25.7594 23.8986 26.8719 23.4378 27.6922 22.6175C28.5125 21.7972 28.9733 20.6847 28.9733 19.5246V10.937C28.9733 9.77693 28.5125 8.66439 27.6922 7.8441C26.8719 7.02382 25.7594 6.56299 24.5993 6.56299ZM13.2269 16.5503C12.9385 16.5503 12.6567 16.4648 12.4169 16.3046C12.1771 16.1444 11.9903 15.9167 11.8799 15.6502C11.7695 15.3838 11.7407 15.0907 11.7969 14.8078C11.8532 14.525 11.992 14.2652 12.196 14.0613C12.3999 13.8574 12.6596 13.7186 12.9425 13.6623C13.2253 13.606 13.5185 13.6349 13.7849 13.7453C14.0513 13.8556 14.279 14.0425 14.4392 14.2823C14.5994 14.522 14.6849 14.8039 14.6849 15.0923C14.6849 15.479 14.5313 15.8498 14.2579 16.1233C13.9844 16.3967 13.6136 16.5503 13.2269 16.5503ZM17.6009 16.5503C17.3125 16.5503 17.0307 16.4648 16.7909 16.3046C16.5511 16.1444 16.3643 15.9167 16.2539 15.6502C16.1435 15.3838 16.1147 15.0907 16.1709 14.8078C16.2272 14.525 16.366 14.2652 16.57 14.0613C16.7739 13.8574 17.0336 13.7186 17.3165 13.6623C17.5993 13.606 17.8925 13.6349 18.1589 13.7453C18.4253 13.8556 18.653 14.0425 18.8132 14.2823C18.9734 14.522 19.0589 14.8039 19.0589 15.0923C19.0589 15.479 18.9053 15.8498 18.6319 16.1233C18.3584 16.3967 17.9876 16.5503 17.6009 16.5503ZM21.9749 16.5503C21.6865 16.5503 21.4047 16.4648 21.1649 16.3046C20.9251 16.1444 20.7382 15.9167 20.6279 15.6502C20.5175 15.3838 20.4887 15.0907 20.5449 14.8078C20.6012 14.525 20.74 14.2652 20.944 14.0613C21.1479 13.8574 21.4076 13.7186 21.6905 13.6623C21.9733 13.606 22.2665 13.6349 22.5329 13.7453C22.7993 13.8556 23.027 14.0425 23.1872 14.2823C23.3474 14.522 23.4329 14.8039 23.4329 15.0923C23.4329 15.479 23.2793 15.8498 23.0059 16.1233C22.7324 16.3967 22.3616 16.5503 21.9749 16.5503Z" fill="#193E9E"/>
</svg>
